<svg width="140" height="34" viewBox="0 0 140 34" fill="none" xmlns="http://www.w3.org/2000/svg">
<path d="M63.3939 19.1662C65.2365 19.1662 66.4502 18.9413 67.7398 18.0796V19.1662H71.9747V4.83936H67.602V12.5553C67.602 14.2212 66.5013 15.4053 64.9877 15.4053C63.4472 15.4053 62.404 14.1952 62.404 12.4734V4.83936H58.0273V13.4968C58.0273 16.7759 60.2826 19.1662 63.3939 19.1662Z" fill="black"/>
<path d="M80.6371 4.32764C79.0394 4.32764 77.6636 5.2166 76.8684 6.61347V4.83957H72.6562V19.1676H77.0329V11.3454C77.0329 9.41076 78.0226 8.06619 79.4255 8.06619C80.0957 8.06619 80.6979 8.0617 81.2889 8.45079C81.7154 8.73173 82.2902 8.4205 82.2876 7.9178L82.2692 4.33142H80.7519C80.7136 4.32764 80.6756 4.32764 80.6371 4.32764Z" fill="black"/>
<path d="M105.851 8.06659C107.884 8.06659 109.344 9.59765 109.344 11.7491C109.344 13.8702 107.884 15.4055 105.851 15.4055C103.813 15.4055 102.357 13.8702 102.357 11.7491C102.357 9.59765 103.813 8.06659 105.851 8.06659ZM105.824 4.30176C101.229 4.30176 97.9805 7.42022 97.9805 11.7491C97.9805 16.1297 100.817 19.1663 104.914 19.1663C106.868 19.1663 108.546 18.3895 109.7 16.9889V19.1663H113.717V11.7491C113.717 7.42022 110.418 4.30176 105.824 4.30176Z" fill="black"/>
<path d="M114.055 7.52347H116.114L116.15 14.0345C116.15 17.0149 117.89 19.0206 120.504 19.1588C120.603 19.1661 120.699 19.1661 120.798 19.1661L123.164 19.1699V16.2566C123.164 15.7835 122.769 15.401 122.285 15.4053C121.211 15.4091 120.523 14.6508 120.523 13.5228L120.486 7.52347H122.556V4.29661H120.486V2.19941C120.486 1.72416 120.092 1.33838 119.605 1.33838H116.114V4.29661H114.055V7.52347Z" fill="black"/>
<path d="M49.4793 8.06659C51.5129 8.06659 52.9728 9.59765 52.9728 11.7491C52.9728 13.8702 51.5129 15.4055 49.4793 15.4055C47.4422 15.4055 45.9858 13.8702 45.9858 11.7491C45.9858 9.59765 47.4422 8.06659 49.4793 8.06659ZM49.4488 4.30176C44.8544 4.30176 41.6094 7.42022 41.6094 11.7491C41.6094 16.1297 44.4416 19.1663 48.5431 19.1663C50.4961 19.1663 52.1742 18.3895 53.3286 16.9889V19.1663H57.3456V11.7491C57.3456 7.42022 54.0434 4.30176 49.4488 4.30176Z" fill="black"/>
<path d="M131.01 7.52837C132.963 7.52837 134.339 9.00736 134.366 10.9157H127.708C127.956 8.8992 129.168 7.52837 131.01 7.52837ZM131.259 4.30127C126.554 4.30127 123.309 7.31181 123.309 11.6406C123.309 16.0774 126.5 19.1438 131.148 19.166C131.327 19.1698 136.457 19.166 138.658 19.1547V17.1486C138.658 16.4478 138.077 15.8793 137.36 15.8793H130.796C129.172 15.7972 128.38 14.8076 127.929 13.3885H130.804H138.632C138.639 13.3438 138.651 13.2912 138.658 13.2389V10.307C138.074 6.70686 135.199 4.30127 131.259 4.30127Z" fill="black"/>
<path d="M89.8737 7.52837C91.8267 7.52837 93.2027 9.00736 93.2296 10.9157H86.5713C86.8196 8.8992 88.0311 7.52837 89.8737 7.52837ZM90.122 4.30127C85.4169 4.30127 82.1719 7.31181 82.1719 11.6406C82.1719 16.0774 85.3595 19.1438 90.0113 19.166C90.1912 19.1698 95.3204 19.166 97.522 19.1547V17.4333C97.522 16.5751 96.8098 15.8793 95.9316 15.8793H89.6596C88.0352 15.7972 87.2439 14.8076 86.7929 13.3885H89.6634H97.4953C97.5028 13.3438 97.5142 13.2912 97.522 13.2389V10.307C96.9372 6.70686 94.0628 4.30127 90.122 4.30127Z" fill="black"/>
<path d="M112.621 23.5747C113.104 23.5747 113.536 23.6727 113.918 23.8684C114.301 24.0644 114.601 24.3543 114.82 24.7387C115.039 25.1231 115.149 25.5874 115.149 26.1313V29.6668H113.89V26.3161C113.89 25.7796 113.753 25.368 113.479 25.0814C113.204 24.795 112.829 24.6518 112.354 24.6518C111.879 24.6518 111.502 24.795 111.224 25.0814C110.946 25.368 110.807 25.7796 110.807 26.3161V29.6668H109.548V26.3161C109.548 25.7796 109.411 25.368 109.137 25.0814C108.862 24.795 108.487 24.6518 108.012 24.6518C107.537 24.6518 107.16 24.795 106.882 25.0814C106.604 25.368 106.465 25.7796 106.465 26.3161V29.6668H105.195V23.6727H106.465V24.3581C106.672 24.1115 106.936 23.9193 107.255 23.7813C107.574 23.6436 107.916 23.5747 108.279 23.5747C108.769 23.5747 109.207 23.6762 109.593 23.8793C109.979 24.0824 110.276 24.3761 110.484 24.7605C110.669 24.3979 110.959 24.1096 111.352 23.8956C111.745 23.6817 112.169 23.5747 112.621 23.5747Z" fill="#FF6600"/>
<path d="M122.389 26.5228C122.389 26.7476 122.374 26.9507 122.344 27.132H117.657C117.695 27.6108 117.876 27.9951 118.203 28.2853C118.53 28.5752 118.93 28.7203 119.405 28.7203C120.088 28.7203 120.571 28.441 120.853 27.8827H122.222C122.037 28.4339 121.701 28.8853 121.215 29.237C120.728 29.5889 120.125 29.7648 119.405 29.7648C118.819 29.7648 118.294 29.636 117.83 29.3785C117.366 29.121 117.002 28.7584 116.739 28.2907C116.476 27.8228 116.344 27.2808 116.344 26.6643C116.344 26.0477 116.472 25.5058 116.728 25.0378C116.984 24.5702 117.344 24.2092 117.808 23.9555C118.272 23.7016 118.804 23.5747 119.405 23.5747C119.984 23.5747 120.5 23.698 120.953 23.9446C121.406 24.1913 121.758 24.5375 122.01 24.9834C122.263 25.4295 122.389 25.9427 122.389 26.5228ZM121.064 26.1313C121.057 25.6743 120.89 25.3081 120.563 25.0324C120.237 24.7569 119.832 24.6192 119.35 24.6192C118.912 24.6192 118.537 24.755 118.225 25.027C117.914 25.2989 117.728 25.6672 117.668 26.1313H121.064Z" fill="#FF6600"/>
<path d="M123.211 26.6425C123.211 26.0407 123.339 25.5074 123.595 25.0433C123.851 24.5792 124.2 24.2185 124.641 23.961C125.083 23.7035 125.575 23.5747 126.117 23.5747C126.517 23.5747 126.913 23.6599 127.302 23.8303C127.692 24.0008 128.002 24.2275 128.232 24.5103V21.6167H129.512V29.6668H128.232V28.7639C128.024 29.0541 127.737 29.2933 127.369 29.482C127.002 29.6704 126.58 29.7648 126.105 29.7648C125.571 29.7648 125.083 29.6323 124.641 29.3676C124.2 29.103 123.851 28.7331 123.595 28.2581C123.339 27.7831 123.211 27.2444 123.211 26.6425ZM128.232 26.6643C128.232 26.2508 128.145 25.8918 127.97 25.5874C127.796 25.2828 127.568 25.0507 127.286 24.8911C127.004 24.7316 126.699 24.6518 126.373 24.6518C126.046 24.6518 125.742 24.7297 125.46 24.8857C125.178 25.0417 124.95 25.2701 124.775 25.5711C124.601 25.8719 124.513 26.2291 124.513 26.6425C124.513 27.056 124.601 27.4186 124.775 27.7303C124.95 28.0423 125.18 28.2799 125.465 28.443C125.751 28.6063 126.054 28.6877 126.373 28.6877C126.699 28.6877 127.004 28.6079 127.286 28.4484C127.568 28.2889 127.796 28.055 127.97 27.7466C128.145 27.4385 128.232 27.0778 128.232 26.6643Z" fill="#FF6600"/>
<path d="M131.828 22.8786C131.598 22.8786 131.405 22.8027 131.249 22.6502C131.094 22.4981 131.016 22.3094 131.016 22.0846C131.016 21.8597 131.094 21.6711 131.249 21.5189C131.405 21.3665 131.598 21.2905 131.828 21.2905C132.051 21.2905 132.24 21.3665 132.396 21.5189C132.552 21.6711 132.63 21.8597 132.63 22.0846C132.63 22.3094 132.552 22.4981 132.396 22.6502C132.24 22.8027 132.051 22.8786 131.828 22.8786ZM132.452 23.6729V29.667H131.183V23.6729H132.452Z" fill="#FF6600"/>
<path d="M133.699 26.6425C133.699 26.0406 133.827 25.5074 134.083 25.0433C134.339 24.5792 134.688 24.2185 135.13 23.961C135.571 23.7035 136.059 23.5747 136.594 23.5747C137.076 23.5747 137.497 23.6672 137.857 23.8521C138.217 24.0372 138.505 24.2675 138.72 24.543V23.6727H140.001V29.6668H138.72V28.7747C138.505 29.0576 138.212 29.2933 137.841 29.4819C137.47 29.6703 137.047 29.7648 136.571 29.7648C136.045 29.7648 135.562 29.6322 135.124 29.3676C134.686 29.103 134.339 28.7331 134.083 28.2581C133.827 27.7831 133.699 27.2444 133.699 26.6425ZM138.72 26.6643C138.72 26.2508 138.633 25.8918 138.459 25.5874C138.284 25.2828 138.056 25.0506 137.774 24.8911C137.492 24.7316 137.188 24.6518 136.861 24.6518C136.534 24.6518 136.23 24.7297 135.948 24.8857C135.666 25.0416 135.438 25.27 135.263 25.5711C135.089 25.8719 135.002 26.229 135.002 26.6425C135.002 27.056 135.089 27.4186 135.263 27.7303C135.438 28.0422 135.668 28.2799 135.954 28.4429C136.239 28.6062 136.542 28.6876 136.861 28.6876C137.188 28.6876 137.492 28.6079 137.774 28.4484C138.056 28.2888 138.284 28.055 138.459 27.7466C138.633 27.4385 138.72 27.0778 138.72 26.6643Z" fill="#FF6600"/>
<path fill-rule="evenodd" clip-rule="evenodd" d="M17.9255 15.2416C16.2704 14.8463 10.7718 14.0485 9.01285 14.1368C9.03247 14.1257 9.04047 14.0954 9.05548 14.0989L26.8125 6.91339L22.8263 25.2848C22.8328 25.2985 22.8035 25.3117 22.7963 25.3328C22.5635 23.6268 20.7563 18.4902 20.0563 16.9724C19.5426 15.8212 19.1778 15.5247 17.9255 15.2416ZM32.0575 0.749125L32.0567 0.748415C28.3506 -2.26189 7.71626 4.61288 3.7044 7.15882C1.04509 8.99023 -0.46538 12.0514 0.128539 14.8542C1.16668 19.752 7.17224 20.0073 11.5307 21.0156C13.9958 21.5171 14.4599 21.8939 15.4147 24.1705C17.2255 28.1734 18.5795 33.8963 23.6976 33.9988C26.6257 34.0572 29.4304 32.0471 30.787 29.1578C32.6155 24.8391 35.7636 3.75943 32.0575 0.749125Z" fill="#FF6600"/>
</svg>
